<?xml version="1.0" encoding="UTF-8"?>
<svg id="_レイヤー_1" data-name="レイヤー 1" xmlns="http://www.w3.org/2000/svg" viewBox="0 0 213.74 253.49">
  <defs>
    <style>
      .cls-1 {
        fill: #231815;
        stroke-width: 0px;
      }
    </style>
  </defs>
  <path class="cls-1" d="m32.47,121.37H0v-4.29c3.26,0,6.33-1.43,9.19-4.29,2.04-2.04,4.69-7.75,7.97-17.16L44.12,2.5h6.74l30.64,101.1c2.85,8.58,7.75,12.87,14.71,12.87v4.9h-42.28v-4.9h1.84c6.13,0,9.19-2.24,9.19-6.74,0-3.26-.61-6.74-1.84-10.42l-4.9-14.71H25.73l-3.68,11.64c-1.64,5.31-2.45,9.19-2.45,11.64s.61,4.29,1.84,5.51c2.04,2.05,5.72,3.27,11.03,3.68v4.29Zm23.9-42.89l-14.71-51.47-14.09,51.47h28.8Z"/>
  <path class="cls-1" d="m213.74,119.53h-13.8l-12.86-38.74h-41.57l-12.55,38.74h-13.33L159.15,0h15.06l39.53,119.53Zm-29.33-49.1l-11.76-35.45c-2.51-8.16-4.55-15.69-6.12-22.74h-.47c-1.57,7.22-3.76,14.74-5.96,22.27l-11.92,35.92h36.24Z"/>
  <path class="cls-1" d="m73.76,249.36h-9.8l-9.13-27.51h-29.52l-8.91,27.51H6.93l28.07-84.88h10.69l28.07,84.88Zm-20.83-34.87l-8.35-25.17c-1.78-5.79-3.23-11.14-4.34-16.15h-.33c-1.11,5.12-2.67,10.47-4.23,15.82l-8.47,25.51h25.73Z"/>
  <path class="cls-1" d="m154.2,253.08c-3.49-3.54-3.89-10.26-1.48-21.53,2.59-11.97,9.59-26.26,17.52-40.06-12.61,1.13-26.79,3.2-39.19,5.96-5.2,6.3-9.59,12.26-12.61,17.34l-2.27-1.28c2.64-4.45,6.39-9.62,10.84-15.14-5.81,1.42-11.13,3.02-15.54,4.74l-.93-2.32c5.29-2.06,11.85-3.95,19.06-5.58,22.69-27.16,60.28-60.89,71.29-60.89,1.95,0,3.11,1.16,3.11,3.08,0,4.5-7.06,15.75-15.72,29.46-4.24,6.74-8.92,14.15-13.39,21.76,10.43-.78,19.38-.84,24.75-.12,5.23.73,7.79,2.93,6.68,5.98-.64,1.63-2.73,1.63-2.44,0,.41-2.03-1.1-3.02-4.59-3.49-5.55-.78-14.99-.64-25.92.2-8.19,14.12-15.49,28.73-18.1,40.88-2.21,10.31-1.92,16.5.78,19.26,1.19,1.25-.73,2.93-1.86,1.74Zm-20.57-58.75c12.32-2.56,26-4.44,38.12-5.46,4.76-8.19,9.79-16.18,14.32-23.36,8.63-13.71,15.31-24.29,15.31-28.12,0-.58-.44-.64-.87-.64-9.56,0-44.42,31.14-66.88,57.58Z"/>
</svg>