<?xml version="1.0" encoding="UTF-8"?>
<svg id="_レイヤー_1" data-name="レイヤー 1" xmlns="http://www.w3.org/2000/svg" viewBox="0 0 326.94 271.88">
  <defs>
    <style>
      .cls-1 {
        fill: none;
        stroke: #231815;
        stroke-linecap: round;
        stroke-miterlimit: 10;
        stroke-width: 19px;
      }
    </style>
  </defs>
  <path class="cls-1" d="m152.58,191.99l-64.6,58.28c-19.27,17.39-48.99,15.86-66.38-3.41h0c-17.39-19.27-15.86-48.99,3.41-66.38l82.41-74.36c19.27-17.39,48.99-15.86,66.38,3.41h0c6.39,7.08,10.22,15.57,11.56,24.34"/>
  <path class="cls-1" d="m174.36,79.88l64.6-58.28c19.27-17.39,48.99-15.86,66.38,3.41h0c17.39,19.27,15.86,48.99-3.41,66.38l-82.41,74.36c-19.27,17.39-48.99,15.86-66.38-3.41h0c-6.39-7.08-10.22-15.57-11.56-24.34"/>
</svg>