<?xml version="1.0" encoding="UTF-8"?>
<svg id="_レイヤー_1" data-name="レイヤー 1" xmlns="http://www.w3.org/2000/svg" xmlns:xlink="http://www.w3.org/1999/xlink" viewBox="0 0 206.1 212.57">
  <defs>
    <style>
      .cls-1 {
        stroke: #231815;
        stroke-miterlimit: 10;
      }

      .cls-1, .cls-2 {
        fill: none;
      }

      .cls-3 {
        fill: #231815;
      }

      .cls-3, .cls-2 {
        stroke-width: 0px;
      }

      .cls-4 {
        clip-path: url(#clippath);
      }
    </style>
    <clipPath id="clippath">
      <rect class="cls-2" x=".5" y=".5" width="205.1" height="205.1" rx="32.14" ry="32.14"/>
    </clipPath>
  </defs>
  <g class="cls-4">
    <g>
      <path class="cls-3" d="m9.64,212.57h25.53V.5H9.64v212.07ZM13.19,22.72c0-1.37,1.11-2.49,2.49-2.49h13.47c1.37,0,2.49,1.11,2.49,2.49v11.23c0,1.37-1.11,2.49-2.49,2.49h-13.47c-1.37,0-2.49-1.11-2.49-2.49v-11.23Zm0,25c0-1.37,1.11-2.49,2.49-2.49h13.47c1.37,0,2.49,1.11,2.49,2.49v11.23c0,1.37-1.11,2.49-2.49,2.49h-13.47c-1.37,0-2.49-1.11-2.49-2.49v-11.23Zm0,25c0-1.37,1.11-2.49,2.49-2.49h13.47c1.37,0,2.49,1.11,2.49,2.49v11.23c0,1.37-1.11,2.49-2.49,2.49h-13.47c-1.37,0-2.49-1.11-2.49-2.49v-11.23Zm0,26c0-1.37,1.11-2.49,2.49-2.49h13.47c1.37,0,2.49,1.11,2.49,2.49v11.23c0,1.37-1.11,2.49-2.49,2.49h-13.47c-1.37,0-2.49-1.11-2.49-2.49v-11.23Zm0,25c0-1.37,1.11-2.49,2.49-2.49h13.47c1.37,0,2.49,1.11,2.49,2.49v11.23c0,1.37-1.11,2.49-2.49,2.49h-13.47c-1.37,0-2.49-1.11-2.49-2.49v-11.23Zm0,26c0-1.37,1.11-2.49,2.49-2.49h13.47c1.37,0,2.49,1.11,2.49,2.49v11.23c0,1.37-1.11,2.49-2.49,2.49h-13.47c-1.37,0-2.49-1.11-2.49-2.49v-11.23Zm0,26c0-1.37,1.11-2.49,2.49-2.49h13.47c1.37,0,2.49,1.11,2.49,2.49v11.23c0,1.37-1.11,2.49-2.49,2.49h-13.47c-1.37,0-2.49-1.11-2.49-2.49v-11.23Z"/>
      <path class="cls-3" d="m172.03.02v212.07h25.53V.02h-25.53Zm21.99,186.45c0,1.37-1.11,2.49-2.49,2.49h-13.47c-1.37,0-2.49-1.11-2.49-2.49v-11.23c0-1.37,1.11-2.49,2.49-2.49h13.47c1.37,0,2.49,1.11,2.49,2.49v11.23Zm0-26c0,1.37-1.11,2.49-2.49,2.49h-13.47c-1.37,0-2.49-1.11-2.49-2.49v-11.23c0-1.37,1.11-2.49,2.49-2.49h13.47c1.37,0,2.49,1.11,2.49,2.49v11.23Zm0-26c0,1.37-1.11,2.49-2.49,2.49h-13.47c-1.37,0-2.49-1.11-2.49-2.49v-11.23c0-1.37,1.11-2.49,2.49-2.49h13.47c1.37,0,2.49,1.11,2.49,2.49v11.23Zm0-25c0,1.37-1.11,2.49-2.49,2.49h-13.47c-1.37,0-2.49-1.11-2.49-2.49v-11.23c0-1.37,1.11-2.49,2.49-2.49h13.47c1.37,0,2.49,1.11,2.49,2.49v11.23Zm0-26c0,1.37-1.11,2.49-2.49,2.49h-13.47c-1.37,0-2.49-1.11-2.49-2.49v-11.23c0-1.37,1.11-2.49,2.49-2.49h13.47c1.37,0,2.49,1.11,2.49,2.49v11.23Zm0-25c0,1.37-1.11,2.49-2.49,2.49h-13.47c-1.37,0-2.49-1.11-2.49-2.49v-11.23c0-1.37,1.11-2.49,2.49-2.49h13.47c1.37,0,2.49,1.11,2.49,2.49v11.23Zm0-25c0,1.37-1.11,2.49-2.49,2.49h-13.47c-1.37,0-2.49-1.11-2.49-2.49v-11.23c0-1.37,1.11-2.49,2.49-2.49h13.47c1.37,0,2.49,1.11,2.49,2.49v11.23Z"/>
    </g>
  </g>
  <rect class="cls-1" x=".5" y=".5" width="205.1" height="205.1" rx="32.14" ry="32.14"/>
  <polygon class="cls-1" points="127.5 86.95 88.57 63.29 88.57 110.6 127.5 86.95"/>
  <polygon class="cls-3" points="60.87 154.02 46.41 145.24 46.41 162.81 60.87 154.02"/>
  <line class="cls-1" x1="71.86" y1="154.02" x2="165.8" y2="154.02"/>
  <circle class="cls-3" cx="75.7" cy="154.02" r="4.34"/>
</svg>