<?xml version="1.0" encoding="UTF-8"?>
<svg id="_レイヤー_1" data-name="レイヤー 1" xmlns="http://www.w3.org/2000/svg" viewBox="0 0 129.17 86.28">
  <defs>
    <style>
      .cls-1 {
        fill: none;
        stroke: #231815;
        stroke-miterlimit: 10;
      }

      .cls-2 {
        fill: #231815;
        stroke-width: 0px;
      }
    </style>
  </defs>
  <path class="cls-2" d="m29.81,64.9c-1.31.9-2.38,1.56-3.2,1.97-1.8.9-3.4,1.11-4.8.62-1.07-.41-1.84-1.19-2.34-2.34-.33-.82-.41-1.64-.25-2.46.25-1.31,1.31-2.83,3.2-4.55.98-.9,2.13-1.72,3.44-2.46l1.72-.86c.16-1.64.29-3.28.37-4.92l-3.81.25-.49.12c-.57.17-1.31-.33-2.21-1.48-.66-.74-.9-1.48-.74-2.21.08-.49.25-.78.49-.86.16.33.41.7.74,1.11.49.66,1.15.98,1.97.98h1.6c.98,0,1.89-.08,2.71-.25.25-2.79.29-4.3.12-4.55-.25-.25-.57-.45-.98-.62-.33-.08-.66-.2-.98-.37.08-.25.29-.45.61-.61.49-.25.9-.37,1.23-.37,1.39,0,2.75.7,4.06,2.09.33.33.37.7.12,1.11l-.62.98-.61,1.84c1.64-.33,2.99-.74,4.06-1.23.16-.08.49-.29.98-.62.9-.49,1.72-.45,2.46.12.66.41,1.02.78,1.11,1.11.16.66-.33,1.15-1.48,1.48l-2.09.62c-.9.25-2.79.57-5.66.98-.17.57-.33,1.31-.49,2.21-.08.66-.17,1.39-.25,2.21,1.64-.49,3.15-.82,4.55-.98.08-.41.12-.7.12-.86,0-.33-.45-.7-1.35-1.11-.08-.16.04-.33.37-.49.41-.25.82-.33,1.23-.25.74.25,1.52.7,2.34,1.35.49.41.74.82.74,1.23,1.15.17,2.09.33,2.83.49,1.97.49,3.52,1.44,4.67,2.83.66.82,1.06,1.97,1.23,3.44.16,2.13-.41,3.93-1.72,5.41-2.13,2.38-5.58,3.89-10.33,4.55-1.48.33-2.05.25-1.72-.25,1.06-.33,1.97-.61,2.71-.86,1.48-.49,2.71-1.15,3.69-1.97,1.31-1.06,2.21-2.38,2.71-3.93.57-1.64.57-3.32,0-5.04-.74-1.88-2.17-3.03-4.3-3.44-.98,2.21-2.09,4.22-3.32,6.03-.66.98-1.4,1.89-2.21,2.71.25.33.49.66.74.98.41.9.25,1.68-.49,2.34-.41.41-.82.53-1.23.37-.41-.16-.82-.7-1.23-1.6Zm-2.21-8.49c-1.07.66-1.93,1.4-2.58,2.21-1.8,2.05-2.58,3.85-2.34,5.41.16.9.62,1.35,1.35,1.35,1.48-.08,3.03-.94,4.67-2.58-.17-.25-.37-.98-.62-2.21-.17-.82-.33-2.21-.49-4.18Zm6.39-2.21c-.82.08-1.56.21-2.21.37-.66.17-1.35.45-2.09.86,0,1.15.04,2.09.12,2.83.08.9.41,1.76.98,2.58.57-.49,1.23-1.64,1.97-3.44.49-1.15.9-2.21,1.23-3.2Z"/>
  <path class="cls-2" d="m72.74,56.07l-4.37,11.23c-.94,2.43-2.59,3.65-4.95,3.65-.92,0-1.84-.23-2.78-.69-1.71-.84-2.56-2.08-2.56-3.72,0-.77.18-1.6.54-2.49l17.37-43.27c1.54-3.85,4.02-5.78,7.44-5.78s5.95,1.93,7.51,5.78l17.37,43.27c.34.87.51,1.72.51,2.56,0,1.57-.82,2.76-2.46,3.58-.96.5-1.94.76-2.93.76-2.31,0-3.94-1.22-4.88-3.65l-4.37-11.23h-21.45Zm10.73-30.84l-7.69,22.17h15.31l-7.62-22.17Z"/>
  <rect class="cls-1" x=".5" y=".5" width="128.17" height="85.28" rx="8.17" ry="8.17"/>
</svg>