<?xml version="1.0" encoding="UTF-8"?>
<svg id="_レイヤー_1" data-name="レイヤー 1" xmlns="http://www.w3.org/2000/svg" viewBox="0 0 321.78 157.16">
  <defs>
    <style>
      .cls-1, .cls-2 {
        font-size: 11px;
      }

      .cls-1, .cls-2, .cls-3, .cls-4 {
        font-weight: 300;
      }

      .cls-1, .cls-3 {
        font-family: UDReiminPr6N-Light-90ms-RKSJ-H, 'A-OTF UD Reimin Pr6N';
      }

      .cls-1, .cls-3, .cls-5 {
        fill: #231815;
      }

      .cls-2, .cls-6, .cls-4, .cls-7 {
        fill: #fff;
      }

      .cls-2, .cls-4 {
        font-family: SourceSerifRoman-Light, 'Source Serif Variable';
        font-variation-settings: 'wght' 300;
      }

      .cls-8 {
        stroke: #040000;
        stroke-miterlimit: 10;
      }

      .cls-8, .cls-9 {
        fill: #040000;
        opacity: .43;
      }

      .cls-10 {
        letter-spacing: .25em;
      }

      .cls-9, .cls-11, .cls-12, .cls-13, .cls-14, .cls-15 {
        stroke-width: 0px;
      }

      .cls-6 {
        stroke: #231815;
        stroke-linejoin: bevel;
      }

      .cls-11 {
        fill: #d2bf37;
      }

      .cls-3 {
        font-size: 17.53px;
      }

      .cls-12 {
        fill: #275aa9;
      }

      .cls-13 {
        fill: #494949;
        opacity: .7;
      }

      .cls-14 {
        fill: #f1f1ec;
      }

      .cls-4 {
        font-size: 56.19px;
      }

      .cls-5 {
        font-size: 33.23px;
      }

      .cls-5, .cls-7 {
        font-family: SourceSerifVariable-Roman, 'Source Serif Variable';
        font-variation-settings: 'wght' 389;
      }

      .cls-16 {
        letter-spacing: -.5em;
      }

      .cls-15 {
        fill: #ef8139;
      }

      .cls-7 {
        font-size: 17.3px;
      }
    </style>
  </defs>
  <rect class="cls-14" x="20.94" y="6.67" width="300" height="150" rx="23.75" ry="23.75"/>
  <rect class="cls-11" x="0" y="0" width="124" height="25" rx="12.5" ry="12.5"/>
  <rect class="cls-12" x="143.09" y="8.81" width="36.76" height="18.45" rx="9.22" ry="9.22"/>
  <rect class="cls-15" x="201.32" y="8.81" width="47.53" height="18.45" rx="9.22" ry="9.22"/>
  <path class="cls-6" d="m262.72,98h.75l-16.7-14.57-2.69,14.57H74.47c-7.33,0-13.28,5.94-13.28,13.28v17.36c0,7.33,5.94,13.28,13.28,13.28h188.26c7.33,0,13.28-5.94,13.28-13.28v-17.36c0-7.33-5.94-13.28-13.28-13.28Z"/>
  <text class="cls-7" transform="translate(20.46 17.51)"><tspan x="0" y="0">Java Script</tspan></text>
  <text class="cls-5" transform="translate(59.86 73.55)"><tspan x="0" y="0">Swiper.js</tspan></text>
  <text class="cls-3" transform="translate(201.62 76.23)"><tspan x="0" y="0">の使い方</tspan></text>
  <text class="cls-1" transform="translate(79.78 118.91)"><tspan x="0" y="0">jQuer</tspan><tspan class="cls-10" x="30.46" y="0">y</tspan><tspan x="39.57" y="0">に依存せず</tspan><tspan class="cls-16" x="94.57" y="0">、</tspan></text>
  <text class="cls-1" transform="translate(159.64 132.24)"><tspan x="0" y="0">スライダーを作る</tspan></text>
  <text class="cls-1" transform="translate(126.79 21.66)"><tspan x="0" y="0">＋</tspan></text>
  <text class="cls-1" transform="translate(185 22.98)"><tspan x="0" y="0">＋</tspan></text>
  <text class="cls-2" transform="translate(152.02 21.66)"><tspan x="0" y="0">CSS</tspan></text>
  <text class="cls-2" transform="translate(209.91 21.81)"><tspan x="0" y="0">HTML</tspan></text>
  <g>
    <rect class="cls-8" x="21.28" y="6.66" width="300" height="150" rx="23.75" ry="23.75"/>
    <rect class="cls-9" x=".34" y="0" width="124" height="25" rx="12.5" ry="12.5"/>
    <rect class="cls-13" x="32.3" y="43.81" width="277.28" height="76.09" rx="13.7" ry="13.7"/>
    <text class="cls-4" transform="translate(49.66 99.88)"><tspan x="0" y="0">Currently</tspan></text>
  </g>
</svg>