<?xml version="1.0" encoding="UTF-8"?>
<svg id="_レイヤー_1" data-name="レイヤー 1" xmlns="http://www.w3.org/2000/svg" viewBox="0 0 153.91 117.96">
  <defs>
    <style>
      .cls-1, .cls-2, .cls-3, .cls-4 {
        font-family: UDReiminPr6N-Light-90ms-RKSJ-H, 'A-OTF UD Reimin Pr6N';
        font-weight: 300;
      }

      .cls-1, .cls-5 {
        letter-spacing: .08em;
      }

      .cls-6 {
        font-size: 14.11px;
      }

      .cls-6, .cls-2, .cls-3 {
        fill: #231815;
      }

      .cls-7 {
        letter-spacing: .08em;
      }

      .cls-2 {
        font-size: 12px;
      }

      .cls-8 {
        stroke-miterlimit: 10;
      }

      .cls-8, .cls-9 {
        stroke: #231815;
        stroke-width: 2px;
      }

      .cls-8, .cls-9, .cls-10 {
        fill: #f1f1ec;
      }

      .cls-3 {
        font-size: 24.11px;
        letter-spacing: .08em;
      }

      .cls-11 {
        letter-spacing: .33em;
      }

      .cls-9 {
        stroke-linejoin: round;
      }

      .cls-5 {
        font-family: Century, Century;
      }

      .cls-4 {
        letter-spacing: .08em;
      }

      .cls-10 {
        stroke-width: 0px;
      }

      .cls-12 {
        letter-spacing: .08em;
      }
    </style>
  </defs>
  <g>
    <path class="cls-9" d="m1,12.11v104.85c23.85-12.15,52.07-12.15,75.91,0V12.11C53.07-.04,24.85-.04,1,12.11Z"/>
    <path class="cls-9" d="m77,12.11v104.85c23.85-12.15,52.07-12.15,75.91,0V12.11C129.07-.04,100.85-.04,77,12.11Z"/>
  </g>
  <g>
    <path class="cls-8" d="m1,10.11v104.85c23.85-12.15,52.07-12.15,75.91,0V10.11C53.07-2.04,24.85-2.04,1,10.11Z"/>
    <path class="cls-8" d="m77,10.11v104.85c23.85-12.15,52.07-12.15,75.91,0V10.11c-23.85-12.15-52.07-12.15-75.91,0Z"/>
  </g>
  <g>
    <path class="cls-10" d="m.96,9.73v104.85c23.85-12.15,52.07-12.15,75.91,0V9.73C53.03-2.42,24.8-2.42.96,9.73Z"/>
    <path class="cls-10" d="m76.96,9.73v104.85c23.85-12.15,52.07-12.15,75.91,0V9.73c-23.85-12.15-52.07-12.15-75.91,0Z"/>
  </g>
  <text class="cls-3" transform="translate(51.56 42.11)"><tspan x="0" y="0">関数</tspan></text>
  <text class="cls-6" transform="translate(40.41 66.41)"><tspan class="cls-1" x="0" y="0">(</tspan><tspan class="cls-5" x="6.36" y="-.27">function</tspan><tspan class="cls-4" x="68.87" y="0">)</tspan></text>
  <text class="cls-2" transform="translate(37.03 84.39)"><tspan class="cls-11" x="0" y="0">(</tspan><tspan class="cls-12" x="8.41" y="0">アロー関</tspan><tspan class="cls-11" x="60.11" y="0">数</tspan><tspan class="cls-7" x="76.03" y="0">)</tspan></text>
</svg>