<?xml version="1.0" encoding="UTF-8"?>
<svg id="_レイヤー_2" data-name="レイヤー 2" xmlns="http://www.w3.org/2000/svg" viewBox="0 0 379.4 41.51">
  <defs>
    <style>
      .cls-1 {
        fill: #231815;
        stroke-width: 0px;
      }
    </style>
  </defs>
  <g id="loding-log">
    <g>
      <path class="cls-1" d="m19.32,7.05l-1.28.15c-.46-2.73-2.96-5.31-7.05-5.31C5.28,1.89,2.12,6.64,2.12,12.18c0,4.32,2.09,10.21,9.08,10.21,2.61,0,6.18-.96,7.19-5.34l1.28.09-.7,4.29c-.44.17-2.38,1.07-2.79,1.22-.81.32-2.58.93-5.08.93C4.61,23.58,0,19.49,0,12.27,0,5.57,4.23.7,10.94.7c2.81,0,4.44.73,6.06,1.48.93.41,1.28.49,1.77.61l.55,4.26Z"/>
      <path class="cls-1" d="m32.95,11.31c0-1.13-.09-3.07-3.36-3.07-1.28,0-2.93.32-3.48,1.6-.46,1.07-.61,1.39-1.3,1.39s-1.02-.55-1.02-1.02c0-1.31,2.23-3.1,5.8-3.1,4.81,0,5.1,2.73,5.1,4.18v9.25c0,1.04.15,1.68.81,1.68.78,0,1.31-.99,1.62-1.65l.9.55c-.7,1.39-1.57,2.47-3.05,2.47-1.77,0-1.97-1.57-2.03-2.38-.72.67-2.73,2.38-5.86,2.38-3.86,0-4.58-2.7-4.58-3.92,0-2.99,2.93-3.97,5.11-4.55.84-.2,4.58-1.02,5.34-1.19v-2.61Zm0,3.83c-6.7,1.39-8.59,1.83-8.59,4.26,0,1.54,1.19,2.9,3.1,2.9s4.15-1.16,5.48-2.64v-4.53Z"/>
      <path class="cls-1" d="m43.47,2.96v4.58h4.09v1.16h-4.09v11.46c0,.64,0,2.12,1.48,2.12.15,0,1.28,0,2.18-1.02l.73.93c-.84.9-2,1.39-3.25,1.39-2.61,0-2.9-1.62-2.9-3.48v-11.4h-2.29v-.99c2.06-.12,2.84-2.03,3.02-4.76h1.04Z"/>
      <path class="cls-1" d="m63.34,20.28c-.52.81-2.15,3.31-6.15,3.31-4.44,0-7.14-3.34-7.14-7.98,0-4.99,3.13-8.5,7.22-8.5s6.18,3.19,6.24,7.51h-11.57c-.12,6.09,3.57,7.66,5.8,7.66.52,0,2.99,0,4.64-2.64l.96.64Zm-1.86-6.82c-.03-.87-.2-5.19-4.26-5.19-2.44,0-4.73,1.8-5.19,5.19h9.46Z"/>
      <path class="cls-1" d="m66.32,26.34c0-1.91,1.13-3.31,3.02-4.52-1.13-.26-1.48-1.19-1.48-1.83,0-1.39,1.71-2.61,2.55-3.16-2.29-.96-3.02-2.96-3.02-4.67,0-3.05,2.21-5.08,5.19-5.08,1.39,0,2.87.49,3.71,1.25.9-.67,2.03-1.25,3.1-1.25,1.16,0,1.33.96,1.33,1.31,0,.7-.58.75-.78.75-.23,0-1.42-.35-1.71-.35-.49,0-.87.12-1.22.35.38.55.93,1.42.93,3.02,0,3.22-2.52,5.34-5.86,5.05-.52.26-2.64,1.33-2.64,2.38,0,.49.49.7.9.75.17.03,2.18.09,3.77.12,2.7.09,6.18.17,6.18,3.83,0,3.16-3.16,6.18-8.32,6.21-3.48.03-5.66-1.57-5.66-4.15Zm1.68-.29c0,1.68,1.51,3.16,4.67,3.16,2.58,0,5.95-1.54,5.95-4.47,0-2.47-2.5-2.61-3.83-2.67-1.02-.06-2.52-.09-3.6-.12-3.19,1.39-3.19,3.71-3.19,4.09Zm8.09-13.89c0-2.29-1.45-3.92-3.42-3.92s-3.42,1.62-3.42,3.92c.03,2.52,1.65,3.92,3.42,3.92s3.42-1.39,3.42-3.92Z"/>
      <path class="cls-1" d="m90.71,7.11c5.08,0,7.63,3.86,7.63,8.24s-2.55,8.24-7.63,8.24-7.63-3.74-7.63-8.24,2.61-8.24,7.63-8.24Zm.12,15.32c2.7,0,5.6-2.12,5.6-6.79s-2.79-7.37-5.83-7.37c-1.51,0-3.22.61-4.44,2.44-.93,1.42-1.13,2.78-1.13,4.9,0,2.93,1.94,6.82,5.8,6.82Z"/>
      <path class="cls-1" d="m104.49,20.19c0,1.68.44,1.94,2.06,1.94v.99h-5.89v-.99c1.68,0,2.09-.32,2.09-1.94v-9.98c0-.78-.03-1.54-.99-1.54-.35,0-.7.06-1.02.09l-.12-.96,3.86-.7v2.03c.87-1.13,2.44-2.03,4.15-2.03.41,0,1.91,0,1.91,1.28,0,.61-.46,1.1-1.04,1.1-.32,0-.35-.03-1.02-.55-.12-.09-.43-.32-.93-.32-.15,0-2.7.17-3.08,3.51v8.06Z"/>
      <path class="cls-1" d="m123.16,10.21c.23-.52.23-.87.23-.99,0-.67-.72-.67-1.86-.67v-.99h5.22v.99c-.96,0-1.65.12-2.32,1.68l-6.5,15.34c-.93,2.2-2.09,4.9-4.47,4.9-.96,0-1.39-.46-1.39-1.02,0-.96.99-.99,1.65-1.02,1.39-.06,1.89-.41,3.13-3.39l1.39-3.31-4.67-11.49c-.64-1.54-1.16-1.71-2.47-1.71v-.99h6v.99c-1.25,0-2,0-2,.67,0,.26.23.87.26.93l3.8,9.4,3.97-9.34Z"/>
      <path class="cls-1" d="m145.96,7.11c5.08,0,7.63,3.86,7.63,8.24s-2.55,8.24-7.63,8.24-7.63-3.74-7.63-8.24,2.61-8.24,7.63-8.24Zm.12,15.32c2.7,0,5.6-2.12,5.6-6.79s-2.79-7.37-5.83-7.37c-1.51,0-3.22.61-4.44,2.44-.93,1.42-1.13,2.78-1.13,4.9,0,2.93,1.94,6.82,5.8,6.82Z"/>
      <path class="cls-1" d="m158.42,7.57v-1.68c0-.93,0-5.19,4.87-5.19,1.39,0,2.96.41,2.96,1.45,0,.55-.46.99-1.01.99s-.81-.32-1.25-.84c-.26-.35-.72-.49-1.19-.49-2.64,0-2.64,2.9-2.64,3.8v1.97h3.45v1.16h-3.45v11.46c0,1.33.23,1.94,1.83,1.94h.93v.99h-7.02v-.99h.7c1.62,0,1.83-.61,1.83-1.94v-11.46h-2.52v-1.16h2.52Z"/>
      <path class="cls-1" d="m184.44,10.82c2.06,0,3.02-.52,3.02-2.73h1.19v6.64h-1.19c0-2.12-.84-2.73-3.02-2.73h-4.09v9.92h5.92c2.55,0,4.29-1.36,4.82-4.52h1.19l-.9,5.71h-15.61v-1.02h.72c1.74,0,1.94-.67,1.94-2.06V4.24c0-1.39-.23-2.06-1.94-2.06h-.72v-1.02h14.88l.75,5.16h-1.19c-.29-1.74-1.04-3.97-4.24-3.97h-5.63v8.47h4.09Z"/>
      <path class="cls-1" d="m198.33,20.19c0,1.68.43,1.94,2.06,1.94v.99h-5.89v-.99c1.68,0,2.06-.32,2.06-1.94V3.13c0-.75,0-1.57-.99-1.57-.35,0-.67.06-.99.12l-.12-.99,3.86-.7v20.19Z"/>
      <path class="cls-1" d="m216.25,20.28c-.52.81-2.15,3.31-6.15,3.31-4.44,0-7.14-3.34-7.14-7.98,0-4.99,3.13-8.5,7.22-8.5s6.18,3.19,6.24,7.51h-11.57c-.12,6.09,3.57,7.66,5.8,7.66.52,0,2.99,0,4.64-2.64l.96.64Zm-1.86-6.82c-.03-.87-.2-5.19-4.26-5.19-2.44,0-4.73,1.8-5.19,5.19h9.46Z"/>
      <path class="cls-1" d="m222.6,10.04c1.16-1.97,3.22-2.93,5.19-2.93,2.49,0,3.68,1.57,3.89,2.84,1.74-2.58,4.21-2.84,5.19-2.84,4.21,0,4.21,3.51,4.21,4.41v8.67c0,1.68.43,1.94,2.06,1.94v.99h-5.89v-.99c1.65,0,2.06-.29,2.06-1.94v-8.59c0-.78,0-3.16-2.73-3.16-2.52,0-4.82,2.29-4.82,4.29v7.45c0,1.65.41,1.94,2.06,1.94v.99h-5.89v-.99c1.68,0,2.09-.32,2.09-1.94v-8.59c0-.78-.03-3.16-2.58-3.16-2,0-4.84,1.77-4.84,4.32v7.43c0,1.68.46,1.94,2.06,1.94v.99h-5.89v-.99c1.68,0,2.09-.32,2.09-1.94v-9.95c0-.78-.03-1.57-.99-1.57-.35,0-.7.06-1.02.12l-.12-.99,3.86-.7v2.93Z"/>
      <path class="cls-1" d="m258.77,20.28c-.52.81-2.15,3.31-6.15,3.31-4.44,0-7.14-3.34-7.14-7.98,0-4.99,3.13-8.5,7.22-8.5s6.18,3.19,6.24,7.51h-11.57c-.12,6.09,3.57,7.66,5.8,7.66.52,0,2.99,0,4.64-2.64l.96.64Zm-1.86-6.82c-.03-.87-.2-5.19-4.26-5.19-2.44,0-4.73,1.8-5.19,5.19h9.46Z"/>
      <path class="cls-1" d="m265.12,10.3c.84-1.36,2.73-3.19,5.66-3.19,4.58,0,4.58,3.63,4.58,5.34v7.74c0,1.68.44,1.94,2.06,1.94v.99h-5.89v-.99c1.65,0,2.06-.29,2.06-1.94v-7.74c0-1.39-.26-4.03-3.1-4.03s-5.37,2.41-5.37,4.52v7.25c0,1.68.46,1.94,2.06,1.94v.99h-5.89v-.99c1.68,0,2.06-.32,2.06-1.94v-9.95c0-.78,0-1.57-.99-1.57-.35,0-.7.06-.99.12l-.12-.99,3.86-.7v3.19Z"/>
      <path class="cls-1" d="m283.36,2.96v4.58h4.09v1.16h-4.09v11.46c0,.64,0,2.12,1.48,2.12.14,0,1.28,0,2.17-1.02l.73.93c-.84.9-2,1.39-3.25,1.39-2.61,0-2.9-1.62-2.9-3.48v-11.4h-2.29v-.99c2.06-.12,2.84-2.03,3.02-4.76h1.04Z"/>
    </g>
    <rect class="cls-1" x="181.23" y="40.12" width="198.17" height="1.38"/>
    <rect class="cls-1" x="142.59" y="40.12" width="31.36" height="1.38"/>
    <rect class="cls-1" x="121.59" y="40.12" width="17.35" height="1.38"/>
    <rect class="cls-1" x="364.1" y="33.5" width="17.35" height="1.38" transform="translate(612.19 321.96) rotate(-135)"/>
    <rect class="cls-1" x="105.32" y="40.12" width="12.07" height="1.38"/>
    <rect class="cls-1" x="90.39" y="40.12" width="9.43" height="1.38"/>
  </g>
</svg>